<?xml version="1.0" encoding="UTF-8"?>
<svg version="1.1" xmlns="http://www.w3.org/2000/svg" width="512" height="512">
<path d="M0 0 C1.27230469 1.04414062 1.27230469 1.04414062 2.5703125 2.109375 C17.49328796 14.92722853 29.96181921 32.12274007 36 51 C36 51.99 36 52.98 36 54 C36.66 54 37.32 54 38 54 C38.11085938 53.31164062 38.22171875 52.62328125 38.3359375 51.9140625 C44.0145593 26.9949339 65.44969001 4.09814219 86.3125 -9.1875 C115.68254933 -26.50919378 147.9492016 -31.33058186 181.25 -23.375 C201.86229133 -17.55908377 218.77779108 -6.85206402 234 8 C234.96292969 8.87011719 234.96292969 8.87011719 235.9453125 9.7578125 C257.22982651 29.45836268 266.39918244 59.68281894 268.24609375 87.73828125 C268.31491437 91.18336077 268.20474767 94.56023918 268 98 C267.96277832 98.70318359 267.92555664 99.40636719 267.88720703 100.13085938 C264.87827692 151.84477902 238.56671254 201.04537805 207 241 C206.06220703 242.2065625 206.06220703 242.2065625 205.10546875 243.4375 C201.24443409 248.34439537 197.23785224 253.12424035 193.1875 257.875 C192.73850342 258.40335449 192.28950684 258.93170898 191.8269043 259.47607422 C183.00308716 269.75396346 173.6654433 279.49967465 164.07397461 289.05639648 C162.30008997 290.82487219 160.53168223 292.59870044 158.76367188 294.37304688 C153.01007151 300.13001489 147.21132051 305.73283782 141 311 C139.39231627 312.45445517 137.78760285 313.91220895 136.1875 315.375 C131.94911157 319.19597138 127.60120897 322.84247331 123.1640625 326.4296875 C120.7871519 328.35180461 118.43324057 330.29965269 116.0859375 332.2578125 C108.56191775 338.52433835 100.96669173 344.63029722 93.09545898 350.45581055 C87.95524853 354.26288336 82.90777057 358.17729094 77.875 362.125 C71.00459313 367.49746875 64.03322829 372.67432658 56.88916016 377.67578125 C54.70720674 379.20523528 52.5311383 380.74287088 50.35546875 382.28125 C46.23957976 385.19120167 42.12055278 388.09665652 38 391 C34.76693986 388.02498015 33.53500204 384.72297257 32 380.6875 C23.16218747 358.4804082 11.89442829 338.82017498 -4 321 C-4.44456543 320.4937207 -4.88913086 319.98744141 -5.34716797 319.46582031 C-15.557295 307.84932942 -26.86849882 297.58388593 -39 288 C-39.97646484 287.22269531 -39.97646484 287.22269531 -40.97265625 286.4296875 C-43.20563833 284.65464911 -45.44558775 282.88874299 -47.6875 281.125 C-48.70976685 280.31409912 -48.70976685 280.31409912 -49.75268555 279.48681641 C-62.42547984 269.59040938 -76.05952898 260.90255761 -89.4375 252 C-90.15645447 251.52099243 -90.87540894 251.04198486 -91.6161499 250.54846191 C-99.58965584 245.23662602 -107.56964462 239.93727125 -115.625 234.75 C-116.26800049 234.33476074 -116.91100098 233.91952148 -117.57348633 233.49169922 C-120.00765897 231.92120355 -122.4426634 230.35265358 -124.890625 228.80371094 C-139.11629521 219.78978271 -151.95950873 209.67477952 -162 196 C-162.59941406 195.20335937 -163.19882813 194.40671875 -163.81640625 193.5859375 C-188.56216462 159.59511952 -195.96887599 117.12379783 -190.03515625 76.03515625 C-184.99681424 44.73939728 -169.56626994 12.85883321 -143.41015625 -6.15576172 C-99.98891887 -36.55313489 -40.70459233 -33.74351712 0 0 Z " fill="#ff8fab" transform="translate(218,74)"/>
</svg>
