<?xml version="1.0" encoding="UTF-8"?>
<svg version="1.1" xmlns="http://www.w3.org/2000/svg" width="512" height="512">
<path d="M0 0 C1.05700712 -0.00644889 2.11401423 -0.01289778 3.20305187 -0.0195421 C4.9356197 -0.01489629 4.9356197 -0.01489629 6.7031889 -0.01015663 C7.93504931 -0.01468774 9.16690972 -0.01921886 10.43609923 -0.02388728 C13.85270262 -0.03436043 17.26909556 -0.03585663 20.68570006 -0.03349853 C24.37156821 -0.0330904 28.05740496 -0.04412909 31.74325848 -0.05361366 C38.9636347 -0.07022567 46.18397828 -0.0757233 53.40437201 -0.07683842 C59.27375458 -0.07778881 65.14312637 -0.08189867 71.01250553 -0.08823967 C87.65437853 -0.10585275 104.29622574 -0.11507845 120.93810812 -0.11357872 C121.83525198 -0.11349881 122.73239585 -0.1134189 123.65672588 -0.11333656 C125.00408539 -0.11321392 125.00408539 -0.11321392 126.37866428 -0.1130888 C140.93560393 -0.11227592 155.4924401 -0.13141401 170.04934982 -0.1596133 C184.99735816 -0.18834164 199.94531604 -0.20215361 214.89335269 -0.20042574 C223.28510577 -0.19976182 231.67675037 -0.20525524 240.06847858 -0.22678185 C247.21353167 -0.24499302 254.35842711 -0.24934157 261.50349335 -0.235763 C265.14808412 -0.22923291 268.79237246 -0.22911723 272.43693447 -0.2464695 C276.39049069 -0.2650991 280.34360532 -0.25264658 284.29718304 -0.23720741 C286.01971262 -0.2526381 286.01971262 -0.2526381 287.77704078 -0.26838052 C295.54620088 -0.20127353 300.92761416 0.95968567 306.93284893 6.22211266 C307.47167706 6.87308922 308.01050518 7.52406578 308.56566143 8.19476891 C309.11995831 8.84316734 309.67425518 9.49156578 310.24534893 10.15961266 C313.85434727 15.39753727 313.99371834 20.11314108 314.00950909 26.27020836 C314.01955471 27.16826698 314.02960033 28.06632561 314.03995037 28.99159813 C314.07076815 31.95124247 314.08781369 34.91079641 314.10472393 37.87055016 C314.1234367 39.92607462 314.14301019 41.98159142 314.16340923 44.03709984 C314.21472488 49.44078612 314.25435374 54.8444973 314.29155254 60.24829674 C314.33159566 65.76502197 314.38268663 71.28164367 314.43284893 76.79828453 C314.52960155 87.61787324 314.61400856 98.43752043 314.69066143 109.25726891 C319.21646462 111.60017782 323.74252911 113.94258125 328.26878643 116.28461266 C328.93570759 116.62971319 329.60262875 116.97481373 330.28975964 117.33037186 C337.55758509 121.09073082 344.82649886 124.84868523 352.11253643 128.57367516 C353.19663799 129.12990562 354.28073956 129.68613609 355.39769268 130.25922203 C357.50247377 131.33863159 359.60938998 132.41388419 361.71800518 133.48578453 C382.29691411 144.07602695 382.29691411 144.07602695 385.69066143 154.25726891 C385.78068881 155.65066694 385.81619684 157.04798495 385.81650257 158.44428825 C385.82041419 159.7306207 385.82041419 159.7306207 385.82440484 161.04293966 C385.82105875 162.45668584 385.82105875 162.45668584 385.81764507 163.89899254 C385.81920506 164.89990944 385.82076505 165.90082635 385.82237232 166.93207407 C385.82637574 170.30155483 385.82319519 173.6709909 385.82005596 177.04047203 C385.82141029 179.44980966 385.8231904 181.85914709 385.82536602 184.26848412 C385.82946141 190.1425751 385.82884966 196.01665438 385.82595338 201.89074504 C385.82369721 206.66372334 385.82338775 211.43669806 385.8244772 216.20967674 C385.82463043 216.88836761 385.82478366 217.56705847 385.82494154 218.26631573 C385.82526126 219.64495893 385.82558547 221.02360214 385.82591413 222.40224534 C385.82876732 235.33712119 385.82548441 248.27198996 385.82011376 261.20686466 C385.81564587 272.31139748 385.81642185 283.41591986 385.82103252 294.5204525 C385.82638111 307.40828355 385.82849265 320.2961084 385.82542026 333.18394041 C385.8251017 334.55758063 385.82478733 335.93122085 385.8244772 337.30486107 C385.82432292 337.98076098 385.82416864 338.6566609 385.82400969 339.35304263 C385.8231454 344.12162108 385.82460555 348.89019559 385.82695675 353.65877342 C385.83005025 360.07401203 385.82785541 366.48923551 385.82206249 372.90447235 C385.82073616 375.26399833 385.82112687 377.62352597 385.82332516 379.9830513 C385.8260416 383.19390541 385.82264938 386.4046953 385.81764507 389.61554527 C385.81987579 390.55804272 385.82210652 391.50054017 385.82440484 392.47159815 C385.82179709 393.32915311 385.81918934 394.18670808 385.81650257 395.07024956 C385.81634022 395.81173603 385.81617787 396.55322249 385.81601059 397.31717825 C385.69066143 399.25726891 385.69066143 399.25726891 384.69066143 402.25726891 C381.72671327 401.65847921 379.70237993 400.78338857 377.24925518 399.02680016 C376.59288067 398.56064293 375.93650616 398.0944857 375.26024151 397.6142025 C374.55665508 397.10453941 373.85306866 396.59487633 373.12816143 396.06976891 C372.38654766 395.53948082 371.64493389 395.00919273 370.88084698 394.46283531 C364.40079282 389.81267431 357.98291235 385.07712476 351.57152081 380.3329525 C346.40143109 376.50822751 341.20023511 372.73371468 335.9584837 369.00800133 C331.27005295 365.67534283 326.60242752 362.31461821 321.94066143 358.94476891 C321.18261211 358.39683678 320.4245628 357.84890465 319.64354229 357.28436852 C318.09733046 356.16654438 316.5511883 355.04862387 315.00511456 353.93060875 C311.23473124 351.20463752 307.46262449 348.48105356 303.69066143 345.75726891 C302.19065284 344.67394746 300.69065285 343.59061412 299.19066143 342.50726891 C298.44816143 341.97101891 297.70566143 341.43476891 296.94066143 340.88226891 C276.69066143 326.25726891 256.44066143 311.63226891 236.19066143 297.00726891 C235.44735577 296.47045494 234.7040501 295.93364098 233.93822002 295.38055992 C232.4462893 294.30301838 230.95442672 293.22538248 229.46263409 292.14764977 C225.58974303 289.34990308 221.71549081 286.55406974 217.83909893 283.76117516 C217.03988018 283.18496422 216.24066143 282.60875328 215.41722393 282.01508141 C213.90464827 280.92461989 212.39166084 279.83472919 210.87816143 278.74555016 C206.10683302 275.30451777 201.3848838 271.80273742 196.69066143 268.25726891 C200.5013164 264.18011535 204.54144975 261.11672746 209.18284893 258.03851891 C209.91240292 257.54802055 210.6419569 257.0575222 211.39361858 256.55216026 C213.78088887 254.94871083 216.17327101 253.35306648 218.56566143 251.75726891 C220.24290813 250.632388 221.91974232 249.5068918 223.59617901 248.38080406 C227.00298716 246.0929481 230.41141 243.80752976 233.82103252 241.52387047 C240.06669841 237.3378494 246.29096213 233.12050365 252.51225567 228.89838219 C255.65792934 226.76388039 258.80520167 224.63173851 261.95238018 222.49945641 C262.57983135 222.07428734 263.20728252 221.64911827 263.85374737 221.21106529 C272.8934857 215.08621074 281.93919853 208.97018096 290.98460674 202.85370445 C297.91989186 198.16367795 304.8530529 193.47057766 311.78050518 188.76898766 C328.36326824 177.51643029 344.99570034 166.34278873 361.69066143 155.25726891 C358.2318052 152.43750767 354.42932897 150.46214737 350.46800518 148.45648766 C349.41692326 147.91820084 349.41692326 147.91820084 348.34460735 147.36903954 C346.10758421 146.22406805 343.86804272 145.08413746 341.62816143 143.94476891 C338.69874278 142.45069157 335.7704705 140.95438848 332.84300518 139.45648766 C332.13896557 139.09650688 331.43492596 138.73652611 330.70955181 138.36563683 C324.98212524 135.42791591 319.31625594 132.38597018 313.69066143 129.25726891 C313.76397686 130.44691246 313.83729229 131.63655602 313.9128294 132.86224937 C314.16798487 137.31498807 314.32752208 141.76709937 314.4597044 146.22504234 C314.52973027 148.14639747 314.62500286 150.06701637 314.74681377 151.98578453 C315.70659865 167.50365089 315.70659865 167.50365089 312.30357647 172.15192223 C308.62156693 175.69658427 302.98130748 180.25726891 297.69066143 180.25726891 C297.68569621 179.05820899 297.68569621 179.05820899 297.68063068 177.83492565 C297.59942761 158.38878985 297.50734397 138.94273347 297.40313435 119.49670696 C297.35300213 110.09277347 297.30655926 100.68884872 297.26878643 91.2848568 C297.23585618 83.08880783 297.19601921 74.8928266 297.14787138 66.69685239 C297.12261669 62.35673227 297.10083233 58.01665703 297.08731747 53.67648315 C297.07448779 49.59138667 297.05242357 45.50644416 297.02327824 41.4214325 C297.01420956 39.92225878 297.00851388 38.42306027 297.00644779 36.92386055 C297.00312043 34.87617355 296.98645821 32.82852119 296.96913433 30.78090477 C296.96360357 29.63511609 296.95807281 28.48932741 296.95237446 27.30881786 C296.67973092 24.12982015 296.3014232 22.01497932 294.69066143 19.25726891 C291.2358801 17.54251722 288.42399122 17.00701653 284.59158611 17.00558662 C283.58149644 17.00037113 282.57140676 16.99515563 281.53070831 16.98978209 C279.87678086 16.99647426 279.87678086 16.99647426 278.18944073 17.00330162 C276.42422966 16.99862165 276.42422966 16.99862165 274.62335777 16.99384713 C271.36060352 16.98724979 268.09799806 16.98962473 264.83524752 16.99581957 C261.31508975 17.00034272 257.79495216 16.99336098 254.27479839 16.98785973 C247.38027681 16.97896262 240.48579875 16.98088915 233.59127545 16.98668501 C227.98836329 16.99120024 222.38546332 16.991815 216.78254986 16.98963737 C215.98536689 16.98933091 215.18818391 16.98902444 214.36684388 16.98870869 C212.7474242 16.98806924 211.12800453 16.98742082 209.50858486 16.98676351 C194.32031351 16.98105928 179.13206629 16.98761955 163.9437989 16.99836424 C150.90921234 17.00729984 137.87466141 17.00574782 124.84007549 16.99652672 C109.7064588 16.98582572 94.57286326 16.98160862 79.43924332 16.98775125 C77.82575322 16.98838835 76.21226311 16.98901709 74.598773 16.98963737 C73.80488774 16.98994593 73.01100249 16.99025448 72.1930601 16.99057238 C66.59633863 16.99229983 60.99963058 16.98938313 55.40291119 16.98467827 C48.58315784 16.97907133 41.76345053 16.98058194 34.94370246 16.99123976 C31.46361459 16.99649899 27.98360351 16.99854894 24.5035162 16.99194145 C20.73289423 16.98649876 16.96249012 16.99330489 13.19188213 17.00330162 C12.08926383 16.99884018 10.98664553 16.99437873 9.85061455 16.98978209 C8.33548004 16.99760534 8.33548004 16.99760534 6.78973675 17.00558662 C5.91947007 17.00591133 5.0492034 17.00623603 4.152565 17.00657058 C1.335628 17.29342235 -0.77667194 18.00020111 -3.30933857 19.25726891 C-5.50413042 23.0148701 -5.56711945 26.49420707 -5.58781147 30.78090477 C-5.59897495 32.10038612 -5.61013844 33.41986748 -5.62164021 34.77933311 C-5.62400497 36.23462458 -5.62618065 37.68991636 -5.62818623 39.14520836 C-5.63748777 40.68287748 -5.64765678 42.22054157 -5.65862751 43.75819969 C-5.68591613 47.92718146 -5.70107354 52.09612945 -5.71405554 56.26517701 C-5.72969104 60.6240865 -5.75647994 64.98292708 -5.78208637 69.34178734 C-5.82886671 77.59351528 -5.86561443 85.84525619 -5.89875925 94.09704894 C-5.93698588 103.4924338 -5.98639464 112.88774943 -6.0367434 122.28307593 C-6.14005218 141.60775625 -6.22931603 160.93247883 -6.30933857 180.25726891 C-7.21391631 179.75452084 -7.21391631 179.75452084 -8.13676834 179.24161625 C-8.93580865 178.79759873 -9.73484896 178.35358122 -10.55810261 177.89610863 C-11.34677943 177.45781825 -12.13545626 177.01952787 -12.94803238 176.56795597 C-14.46535568 175.72573736 -15.9859192 174.88931571 -17.51044846 174.06021214 C-20.27066442 172.50549707 -21.98891109 171.35274308 -22.89988422 168.23831749 C-23.12159031 165.72689694 -23.09741508 163.31916765 -22.99293232 160.80023766 C-22.98302769 159.89727455 -22.97312305 158.99431145 -22.96291828 158.06398582 C-22.92383389 155.18923786 -22.83602963 152.3183557 -22.74683857 149.44476891 C-22.71171672 147.49235023 -22.67977924 145.53987149 -22.65113544 143.58734703 C-22.57409192 138.80917232 -22.45335526 134.03387518 -22.30933857 129.25726891 C-26.15685514 131.2412839 -30.00373445 133.22652776 -33.84995747 135.21304893 C-35.19363955 135.90700649 -36.53740935 136.6007942 -37.8812685 137.2944088 C-46.58619324 141.78854228 -55.26177627 146.32432147 -63.85230732 151.03461266 C-66.30933857 152.25726891 -66.30933857 152.25726891 -68.30933857 152.25726891 C-63.57187328 157.63126587 -57.65272216 161.18703221 -51.68433857 165.06976891 C-44.58845596 169.71006761 -37.60212939 174.43206006 -30.77076435 179.45526695 C-27.57918321 181.79181332 -24.32992888 184.03343042 -21.05933857 186.25726891 C-14.3467482 190.84658133 -7.66742207 195.48213705 -0.99683857 200.13226891 C8.48104054 206.73523031 17.99890371 213.2770508 27.53978252 219.78851891 C38.45875849 227.24465504 49.32338141 234.77754574 60.17283916 242.33441734 C66.57742973 246.79339715 72.99716337 251.22930642 79.43284893 255.64325523 C84.54164934 259.14877632 89.62511987 262.6894716 94.69066143 266.25726891 C93.30432802 269.53129103 91.84559431 271.18540138 88.97191143 273.25336266 C88.21394268 273.80508141 87.45597393 274.35680016 86.67503643 274.92523766 C85.85519268 275.50918297 85.03534893 276.09312828 84.19066143 276.69476891 C83.33988018 277.31094078 82.48909893 277.92711266 81.61253643 278.56195641 C78.97739955 280.4681427 76.33451683 282.36320057 73.69066143 284.25726891 C72.1588294 285.361931 70.62755103 286.46736139 69.09691143 287.57367516 C66.88704745 289.17079968 64.6767535 290.76728353 62.46409893 292.36054039 C57.01180904 296.28887251 51.59511393 300.26344022 46.19066143 304.25726891 C40.05049874 308.79477902 33.88711482 313.29693467 27.69066143 317.75726891 C18.3028537 324.5171064 8.99369648 331.38144235 -0.30933857 338.25726891 C-10.34945097 345.67786564 -20.40731365 353.0692293 -30.54005146 360.3629818 C-36.7934476 364.87003844 -42.99864322 369.44044778 -49.19727802 374.02240562 C-55.335956 378.55451826 -61.51670696 383.0254909 -67.71558857 387.4747982 C-71.48391261 390.18767358 -75.22254013 392.93232047 -78.92261982 395.73773766 C-79.6603664 396.29702965 -80.39811298 396.85632164 -81.15821552 397.43256187 C-82.56249503 398.5013507 -83.96353642 399.57441135 -85.36085224 400.65228844 C-90.09215943 404.25726891 -90.09215943 404.25726891 -92.30933857 404.25726891 C-94.83474706 399.41124014 -94.59450932 394.77140752 -94.57676411 389.44664574 C-94.58129522 388.45163136 -94.58582633 387.45661699 -94.59049475 386.43145066 C-94.60316614 383.09363924 -94.6015166 379.75599041 -94.59986591 376.41815758 C-94.60584945 374.02648775 -94.61265459 371.63481986 -94.62022114 369.24315453 C-94.63606876 363.41845484 -94.64233031 357.59380458 -94.64344589 351.76908442 C-94.6443968 347.03337749 -94.64850922 342.29768391 -94.65484715 337.5619812 C-94.67245758 324.12968355 -94.68168637 310.69741783 -94.6801862 297.26510855 C-94.68010628 296.54121043 -94.68002637 295.81731231 -94.67994404 295.07147789 C-94.67986228 294.34669388 -94.67978052 293.62190986 -94.67969628 292.8751627 C-94.67888352 281.13115139 -94.69801916 269.38726838 -94.72622077 257.64329418 C-94.75496234 245.57907572 -94.76876036 233.51491981 -94.76703322 221.45066625 C-94.76636974 214.67975179 -94.77184353 207.90897181 -94.79338932 201.13808823 C-94.81274461 194.76950601 -94.81291441 188.40120786 -94.79835606 182.03261566 C-94.79626351 179.69614688 -94.80099528 177.35966045 -94.81307697 175.02322197 C-94.82851172 171.83142806 -94.81923213 168.64061576 -94.80381489 165.448843 C-94.81410201 164.52616495 -94.82438914 163.60348689 -94.834988 162.6528489 C-94.75725143 155.36065717 -92.76420475 150.28975066 -88.18433857 144.63226891 C-81.18055 138.84653052 -72.81073242 134.85581691 -64.73511982 130.78070641 C-63.76704899 130.28817375 -62.79897816 129.7956411 -61.80157185 129.28818321 C-58.74338072 127.73279746 -55.68279442 126.18220564 -52.62183857 124.63226891 C-49.55051498 123.07452948 -46.479744 121.51572283 -43.40997028 119.95493126 C-41.50991614 118.98911856 -39.60893519 118.02512623 -37.7068758 117.06326866 C-36.8387476 116.62245964 -35.97061939 116.18165062 -35.07618427 115.72748375 C-34.32247044 115.3458709 -33.5687566 114.96425804 -32.79220295 114.57108116 C-31.9728577 114.13752312 -31.15351246 113.70396507 -30.30933857 113.25726891 C-29.7070622 113.01453743 -29.10478582 112.77180595 -28.48425865 112.52171898 C-26.46213976 111.60552999 -24.93944291 110.76973357 -23.30933857 109.25726891 C-22.2899225 106.34203185 -22.40511771 103.54740219 -22.48634052 100.48480797 C-22.47981464 99.15721458 -22.47981464 99.15721458 -22.47315693 97.80280113 C-22.46614025 94.8751848 -22.50753441 91.95021079 -22.54761982 89.02289391 C-22.54839221 86.98511132 -22.54550691 84.94732434 -22.53912067 82.90955162 C-22.52951654 77.53972962 -22.558198 72.17087129 -22.598279 66.80121422 C-22.65964647 58.22121453 -22.67947248 49.64146951 -22.66845989 41.06127739 C-22.67255569 38.06973135 -22.7028399 35.07924928 -22.73544025 32.08789635 C-22.73932372 30.24103535 -22.74227655 28.39417209 -22.74415302 26.54730797 C-22.7601807 25.72208641 -22.77620838 24.89686485 -22.79272175 24.04663658 C-22.75980536 17.29013354 -20.81663522 12.1184782 -16.34449482 7.01508141 C-15.69351826 6.47625328 -15.04254169 5.93742516 -14.37183857 5.38226891 C-13.72344013 4.82797203 -13.07504169 4.27367516 -12.40699482 3.70258141 C-8.39650113 0.93929898 -4.83754914 0.00747982 0 0 Z " fill="#000000" transform="translate(110.30933856964111,47.74273109436035)"/>
<path d="M0 0 C6.85275668 4.56200587 13.42672389 9.53048087 20.03125 14.44140625 C24.68014978 17.8964005 29.36270786 21.30216568 34.0625 24.6875 C34.80056885 25.21939941 35.5386377 25.75129883 36.29907227 26.29931641 C37.78789793 27.37184307 39.27691116 28.44410939 40.76611328 29.51611328 C44.51359784 32.21512128 48.25655845 34.92038884 52 37.625 C53.49997854 38.70836304 54.99997854 39.79169638 56.5 40.875 C89.5 64.70833333 122.5 88.54166667 155.5 112.375 C156.6139917 113.17949585 156.6139917 113.17949585 157.75048828 114.00024414 C159.24899806 115.08257349 160.7473707 116.16509274 162.24560547 117.24780273 C166.01729852 119.97307844 169.79138977 122.69491237 173.5703125 125.41015625 C183.47099118 132.5305653 193.27250758 139.76974347 203 147.125 C202.67 147.785 202.34 148.445 202 149.125 C198.48402019 150.29699327 195.32814176 150.26294965 191.67109585 150.25084114 C190.53728034 150.2530213 190.53728034 150.2530213 189.38055947 150.25524551 C186.82728977 150.2589183 184.27407929 150.25541317 181.72080994 150.25198364 C179.87998488 150.25313495 178.03916005 150.25472254 176.19833571 150.25671089 C171.12386687 150.2609028 166.04941673 150.25881413 160.97494781 150.25572467 C155.50865224 150.25347025 150.04235998 150.25695038 144.57606506 150.25970459 C133.86154378 150.26416073 123.14702949 150.26318653 112.43250792 150.26029195 C103.72836145 150.25803743 95.02421695 150.25772561 86.32007027 150.25881577 C84.46482947 150.25904561 84.46482947 150.25904561 82.57210906 150.25928011 C80.05986312 150.25959982 77.54761719 150.25992403 75.03537125 150.2602527 C52.12852915 150.26302557 29.22169011 150.26014569 6.31484873 150.2549101 C-14.61082229 150.25016371 -35.53648723 150.25058941 -56.4621582 150.25537109 C-79.95648482 150.26072175 -103.45080876 150.2628329 -126.94513601 150.25975883 C-129.44805268 150.25944027 -131.95096936 150.2591259 -134.45388603 150.25881577 C-135.68551282 150.25866149 -136.91713962 150.25850721 -138.18608843 150.25834826 C-146.88501114 150.25748313 -155.5839317 150.2589459 -164.28285408 150.26129532 C-174.87632672 150.26409342 -185.46979194 150.26335482 -196.06326372 150.25801457 C-201.47302332 150.25537779 -206.88277054 150.25437213 -212.29253006 150.25766373 C-217.2374705 150.26062711 -222.18238699 150.25903316 -227.12732523 150.25368617 C-228.92335593 150.25256218 -230.71938862 150.25315279 -232.51541806 150.25556196 C-234.94262047 150.25856992 -237.36973908 150.25551728 -239.79693699 150.25084114 C-240.50636349 150.25318231 -241.21578998 150.25552347 -241.94671425 150.25793558 C-246.77169921 150.2391504 -246.77169921 150.2391504 -249 149.125 C-247.89466585 145.80899754 -247.3751416 145.40122505 -244.6328125 143.48046875 C-243.56643555 142.7234668 -243.56643555 142.7234668 -242.47851562 141.95117188 C-241.70185547 141.41041016 -240.92519531 140.86964844 -240.125 140.3125 C-238.47066589 139.14029368 -236.81704245 137.96708386 -235.1640625 136.79296875 C-233.88063965 135.88490479 -233.88063965 135.88490479 -232.57128906 134.95849609 C-228.51101765 132.06325889 -224.50631055 129.09422187 -220.5 126.125 C-213.62374306 121.04190792 -206.70965545 116.01496215 -199.76953125 111.01953125 C-194.31916162 107.09107984 -188.90325984 103.11794732 -183.5 99.125 C-176.6229644 94.04294922 -169.70966917 89.01497203 -162.76953125 84.01953125 C-157.31916162 80.09107984 -151.90325984 76.11794732 -146.5 72.125 C-140.35983731 67.58748989 -134.19645339 63.08533424 -128 58.625 C-118.61219227 51.86516251 -109.30303505 45.00082656 -100 38.125 C-89.20871148 30.14921277 -78.39869164 22.20363766 -67.5 14.375 C-64.37712081 12.12871848 -61.2768793 9.85462012 -58.1875 7.5625 C-57.392229 6.97670166 -56.59695801 6.39090332 -55.77758789 5.78735352 C-54.2717604 4.67742433 -52.77053817 3.56120556 -51.27514648 2.43725586 C-35.24076003 -9.329779 -17.06124329 -10.3203539 0 0 Z " fill="#000000" transform="translate(280,313.875)"/>
<path d="M0 0 C1.11117732 1.01319775 2.21829301 2.03099828 3.3125 3.0625 C6.62652595 1.58625208 9.06920349 -0.328265 11.8125 -2.6875 C22.5142763 -11.39456651 35.14098171 -16.65566903 49.046875 -15.76171875 C59.54431232 -14.25991775 68.96421959 -9.53223982 76.20703125 -1.76171875 C86.0180056 11.39845649 90.93886777 27.53204663 88.75 43.9375 C83.62056531 69.61841976 65.25947015 91.05471539 48.3125 110.0625 C47.8494043 110.58344238 47.38630859 111.10438477 46.90917969 111.64111328 C40.48070811 118.83293755 33.76674535 125.75220145 27 132.625 C26.24702637 133.3994043 25.49405273 134.17380859 24.71826172 134.97167969 C18.41556893 141.31202964 12.99167675 145.60960606 3.79296875 146.15234375 C-8.30792859 145.71404353 -16.68925257 134.24734467 -24.62329102 126.31201172 C-26.11391615 124.82356763 -27.61237017 123.34332723 -29.11132812 121.86328125 C-35.42167747 115.58922482 -41.13675405 109.02861829 -46.6875 102.0625 C-47.56144776 101.03389087 -48.4413485 100.01024643 -49.33203125 98.99609375 C-65.28568997 80.62782722 -81.98237114 56.81633521 -80.47265625 31.453125 C-78.92073236 16.96850206 -73.42287663 3.82618271 -62.7265625 -6.3046875 C-42.42166916 -22.56416148 -18.23597702 -15.86016312 0 0 Z " fill="#000000" transform="translate(251.6875,110.9375)"/>
</svg>
